<?xml version="1.0" standalone="no"?>
<!DOCTYPE svg PUBLIC "-//W3C//DTD SVG 1.1//EN" "http://www.w3.org/Graphics/SVG/1.1/DTD/svg11.dtd" >
<svg xmlns="http://www.w3.org/2000/svg" xmlns:xlink="http://www.w3.org/1999/xlink" version="1.1">
<metadata>
Created by FontForge 20170924 at Thu Feb 13 17:50:54 2020
 By root
2020 Iconian Fonts - www.iconian.com
</metadata>
<defs>
<font id="SpyAgencyBold" horiz-adv-x="810" >
  <font-face 
    font-family="Spy Agency Bold"
    font-weight="400"
    font-stretch="normal"
    units-per-em="1000"
    panose-1="0 0 0 0 0 0 0 0 0 0"
    ascent="800"
    descent="-200"
    x-height="624"
    cap-height="624"
    bbox="-110 -167 2137 841"
    underline-thickness="50"
    underline-position="-125"
    unicode-range="U+0020-2122"
  />
    <missing-glyph />
    <glyph glyph-name="FL0020h" unicode=" " horiz-adv-x="404" 
 />
    <glyph glyph-name="FL0021h" unicode="!" horiz-adv-x="271" 
d="M44 0h189v156h-189v-156zM44 236h189v388h-189v-388z" />
    <glyph glyph-name="FL0022h" unicode="&#x22;" horiz-adv-x="475" 
d="M248 334h101l87 144v146h-188v-290zM44 334h102l87 144v146h-189v-290z" />
    <glyph glyph-name="FL0023h" unicode="#" horiz-adv-x="781" 
d="M329 268v101h123v-101h-123zM44 525v-156h98v-101h-98v-156h98v-112h187v112h123v-112h187v112h104v156h-104v101h104v156h-104v99h-187v-99h-123v99h-187v-99h-98z" />
    <glyph glyph-name="FL0024h" unicode="$" horiz-adv-x="809" 
d="M502 157v76h65l8 -7v-61l-10 -8h-63zM240 396v63l9 8h65v-77h-67zM44 530v-174q0 -35 10 -58.5t26.5 -37.5t37.5 -20.5t44 -6.5h152v-76h-270v-157h270v-139h188v139h175q16 0 32.5 9t30 23t22.5 30.5t9 31.5v173q0 34 -10 58t-26.5 38t-38 20.5t-43.5 6.5h-151v77h269
v157h-269v149h-188v-149h-176q-15 0 -31.5 -9t-30.5 -23t-23 -30.5t-9 -31.5z" />
    <glyph glyph-name="FL0025h" unicode="%" horiz-adv-x="1014" 
d="M124 0l537 623h232l-536 -623h-233zM44 562q0 32 23 47t52 15h224q13 0 26.5 -4t24 -12t17.5 -19.5t7 -26.5v-195q0 -15 -7 -27t-17.5 -20t-24 -12t-26.5 -4h-224q-29 0 -52 14.5t-23 48.5v195zM602 257q0 33 22.5 48t51.5 15h224q27 0 51 -16.5t24 -46.5v-195
q0 -31 -24 -46.5t-51 -15.5h-224q-29 0 -51.5 14.5t-22.5 47.5v195zM728 209v-99h118v99h-118zM171 513v-99h118v99h-118z" />
    <glyph glyph-name="FL0026h" unicode="&#x26;" horiz-adv-x="880" 
d="M842 388v-156h-89v-232h-615q-16 0 -32.5 9t-30 23t-22.5 30.5t-9 31.5v173q0 12 11.5 26t19.5 23q-2 5 -4 17t-2 42v155q0 15 9 31.5t23 30.5t30.5 23t31.5 9h503v-156h-394q-7 0 -7 -4v-72q0 -4 7 -4h570zM233 160q0 -4 8 -4h323v76h-323q-8 0 -8 -4v-68z" />
    <glyph glyph-name="FL0027h" unicode="'" horiz-adv-x="271" 
d="M44 334h102l87 144v146h-189v-290z" />
    <glyph glyph-name="FL0028h" unicode="(" horiz-adv-x="445" 
d="M44 507v-390q0 -31 12 -53t32 -36.5t45 -21t52 -6.5h222v156h-175v312h175v156h-222q-27 0 -52 -6.5t-45 -21t-32 -36.5t-12 -53z" />
    <glyph glyph-name="FL0029h" unicode=")" horiz-adv-x="445" 
d="M407 117v390q0 31 -12 53t-32 36.5t-45 21t-52 6.5h-222v-156h175v-312h-175v-156h222q27 0 52 6.5t45 21t32 36.5t12 53z" />
    <glyph glyph-name="FL00B6h" unicode="*" horiz-adv-x="298" 
d="M28 642v-105l37 -8l-41 -39l81 -73l46 45l49 -45l77 73l-40 39l38 8v105l-69 -10v62h-110v-62z" />
    <glyph glyph-name="FL002Bh" unicode="+" horiz-adv-x="441" 
d="M44 388v-156h101v-101h156v101h102v156h-102v100h-156v-100h-101z" />
    <glyph glyph-name="FL002Ch" unicode="," horiz-adv-x="271" 
d="M44 -138h102l87 144v150h-189v-294z" />
    <glyph glyph-name="FL002Dh" unicode="-" horiz-adv-x="441" 
d="M44 232h359v156h-359v-156z" />
    <glyph glyph-name="FL002Eh" unicode="." horiz-adv-x="271" 
d="M44 0h189v156h-189v-156z" />
    <glyph glyph-name="FL002Fh" unicode="/" horiz-adv-x="779" 
d="M242 0h-232l534 623h231z" />
    <glyph glyph-name="FL0030h" unicode="0" 
d="M583 156h-172l172 271v-271zM232 468h171l-171 -275v275zM44 507v-390q0 -31 12 -53t32 -36.5t45 -21t52 -6.5h446q25 0 50 7.5t45 22.5t33 36.5t13 50.5v390q0 28 -13 50t-33 37t-45 22.5t-50 7.5h-446q-27 0 -52 -6.5t-45 -21t-32 -36.5t-12 -53z" />
    <glyph glyph-name="FL0031h" unicode="1" horiz-adv-x="367" 
d="M140 0h189v624h-285v-156h96v-468z" />
    <glyph glyph-name="FL0032h" unicode="2" horiz-adv-x="809" 
d="M43 468h531q8 0 8 -4v-70q0 -4 -8 -4h-413q-23 0 -44 -6.5t-37.5 -20.5t-26.5 -37.5t-10 -57.5v-174q0 -15 9 -31.5t22.5 -30.5t30 -23t32.5 -9h633v156h-530q-8 0 -8 4v70q0 4 8 4h420q21 1 41 8t35.5 21.5t24.5 37t9 55.5v173q0 15 -9.5 31.5t-23.5 30.5t-30.5 23.5
t-31.5 9.5h-632v-156z" />
    <glyph glyph-name="FL0033h" unicode="3" horiz-adv-x="813" 
d="M44 0v156h533q8 0 8 4v68q0 4 -8 4h-533v156h510q8 0 8 4v72q0 4 -8 4h-510v156h613q15 0 31.5 -9t30.5 -23t23 -30.5t9 -31.5v-154q0 -28 -1.5 -41.5t-6.5 -20.5q2 -2 2.5 -3t2.5 -2q8 -10 17.5 -21.5t9.5 -22.5v-171q0 -15 -9 -31.5t-22.5 -30.5t-30 -23t-32.5 -9h-637
zM739 321q-2 2 -2 1t2 -3v2z" />
    <glyph glyph-name="FL0034h" unicode="4" horiz-adv-x="866" 
d="M554 258h-222l222 163v-163zM554 0h190v102h84v156h-84v366h-204l-496 -369v-153h510v-102z" />
    <glyph glyph-name="FL0035h" unicode="5" horiz-adv-x="809" 
d="M715 468h-483v-74q0 -4 8 -4h413q22 0 43.5 -6.5t38 -20.5t26.5 -37.5t10 -57.5v-174q0 -15 -9 -31.5t-22.5 -30.5t-30 -23t-32.5 -9h-633v156h530q8 0 8 4v70q0 4 -8 4h-420q-21 1 -41 8t-35.5 21.5t-24.5 37t-9 55.5v268h671v-156z" />
    <glyph glyph-name="FL0036h" unicode="6" 
d="M772 468h-540v-82h429q53 0 77.5 -29t33.5 -71v-169q0 -29 -13 -50.5t-33 -36.5t-45 -22.5t-50 -7.5h-446q-27 0 -52 6.5t-45 21t-32 36.5t-12 53v390q0 31 12 53t32 36.5t45 21t52 6.5h587v-156zM575 232h-343v-76h343q8 0 8 4v68q0 4 -8 4z" />
    <glyph glyph-name="FL0037h" unicode="7" horiz-adv-x="730" 
d="M51 0h234l407 478v146h-648v-155h406z" />
    <glyph glyph-name="FL0038h" unicode="8" horiz-adv-x="814" 
d="M67 530q0 15 9 31.5t23 30.5t30.5 23t31.5 9h496q15 0 31.5 -9t30.5 -23t23 -30.5t9 -31.5v-154q0 -29 -2.5 -41t-6.5 -20q1 -1 2 -1.5t2 -1.5q8 -10 18.5 -23t10.5 -24v-171q0 -15 -9 -31.5t-22.5 -30.5t-30 -23t-32.5 -9h-544q-16 0 -32.5 9t-30 23t-22.5 30.5t-9 31.5
v171q0 11 10.5 24t18.5 23l3 3q-4 8 -6 20t-2 41v154zM577 156q8 0 8 4v68q0 4 -8 4h-336q-8 0 -8 -4v-68q0 -4 8 -4h336zM264 388h290q8 0 8 4v72q0 4 -8 4h-290q-8 0 -8 -4v-72q0 -4 8 -4z" />
    <glyph glyph-name="FL0039h" unicode="9" 
d="M44 156h540v82h-429q-53 0 -77.5 29t-33.5 71v169q0 28 12.5 50t32.5 37t45 22.5t51 7.5h446q27 0 52 -6.5t45 -21t32 -36.5t12 -53v-390q0 -31 -12 -53t-32 -36.5t-45 -21t-52 -6.5h-587v156zM233 396q0 -4 8 -4h343v76h-343q-8 0 -8 -4v-68z" />
    <glyph glyph-name="FL003Ah" unicode=":" horiz-adv-x="271" 
d="M44 236h189v156h-189v-156zM44 0h189v156h-189v-156z" />
    <glyph glyph-name="FL003Bh" unicode=";" horiz-adv-x="271" 
d="M44 237h189v157h-189v-157zM44 -138h102l87 144v150h-189v-294z" />
    <glyph glyph-name="FL003Ch" unicode="&#x3c;" horiz-adv-x="577" 
d="M574 624h-247l-313 -312l313 -312h247l-293 312z" />
    <glyph glyph-name="FL003Dh" unicode="=" horiz-adv-x="463" 
d="M43 326h382v153h-382v-153zM43 133h382v153h-382v-153z" />
    <glyph glyph-name="FL003Eh" unicode="&#x3e;" horiz-adv-x="576" 
d="M255 624h-246l291 -312l-291 -312h246l312 312z" />
    <glyph glyph-name="FL003Fh" unicode="?" horiz-adv-x="809" 
d="M567 468h-523v156h633q15 0 31.5 -9t30.5 -23t23 -30.5t9 -31.5v-174q0 -35 -10 -58t-26.5 -36.5t-38 -19.5t-43.5 -6h-315l-13 -14h-191v50q0 31 9.5 53.5t25 37t35 21.5t40.5 8h323q8 0 8 4v68q0 4 -8 4zM324 0h-189v156h189v-156z" />
    <glyph glyph-name="FL0040h" unicode="@" horiz-adv-x="943" 
d="M412 197v93h112v-93h-112zM280 345v-202q0 -34 22.5 -48.5t51.5 -14.5h409q26 0 51.5 7t45.5 21.5t32 37t12 53.5v309q0 31 -12 53.5t-32 37t-45.5 21t-51.5 6.5h-580q-26 0 -51 -7t-44.5 -21t-31.5 -36t-12 -53v-533q0 -31 12 -53t32 -36.5t45.5 -21t51.5 -6.5h588v157
h-540v454h483v-229h-57v104q0 15 -7 26.5t-17.5 19.5t-24 12t-26.5 4h-230q-29 0 -51.5 -14.5t-22.5 -47.5z" />
    <glyph glyph-name="FL0EEEh" unicode="A" horiz-adv-x="869" 
d="M861 0h-202l-47 82h-349l-46 -82h-203l332 624h183zM438 414l-96 -175h192z" />
    <glyph glyph-name="FL0042h" unicode="B" horiz-adv-x="813" 
d="M44 0v388h510q8 0 8 4v72q0 4 -8 4h-510v156h613q15 0 31.5 -9t30.5 -23t23 -30.5t9 -31.5v-154q0 -29 -2.5 -41t-6.5 -20q1 -1 2 -1.5t2 -1.5q8 -10 18.5 -23t10.5 -24v-171q0 -15 -9 -31.5t-22.5 -30.5t-30 -23t-32.5 -9h-637zM577 232h-344v-76h344q8 0 8 4v68
q0 4 -8 4z" />
    <glyph glyph-name="FL0043h" unicode="C" 
d="M44 507v-390q0 -31 12 -53t32 -36.5t45 -21t52 -6.5h446q25 0 50 7.5t45 22.5t33 36.5t13 50.5v109h-189v-70h-351v312h351v-71h189v110q0 28 -13 50t-33 37t-45 22.5t-50 7.5h-446q-27 0 -52 -6.5t-45 -21t-32 -36.5t-12 -53z" />
    <glyph glyph-name="FL0044h" unicode="D" horiz-adv-x="809" 
d="M677 624q16 0 32.5 -9t30 -23t22.5 -30.5t9 -31.5v-406q0 -34 -10 -57.5t-26.5 -38.5t-38 -21.5t-43.5 -6.5h-609v370h189v-212h343q7 0 7 4v303q0 4 -7 4h-532v155h633z" />
    <glyph glyph-name="FL0045h" unicode="E" horiz-adv-x="730" 
d="M44 0h648v156h-461v76h242v156h-242v80h461v156h-648v-624z" />
    <glyph glyph-name="FL0046h" unicode="F" horiz-adv-x="730" 
d="M44 624h648v-156h-461v-98h242v-156h-242v-214h-187v624z" />
    <glyph glyph-name="FL0047h" unicode="G" 
d="M232 468h540v156h-587q-27 0 -52 -6.5t-45 -21t-32 -36.5t-12 -53v-390q0 -31 12 -53t32 -36.5t45 -21t52 -6.5h446q25 0 50 7.5t45 22.5t33 36.5t13 50.5v271h-400v-156h211v-76h-351v312z" />
    <glyph glyph-name="FL0048h" unicode="H" horiz-adv-x="812" 
d="M585 0h189v624h-189v-236h-352v236h-189v-624h189v232h352v-232z" />
    <glyph glyph-name="FL0049h" unicode="I" horiz-adv-x="536" 
d="M44 156v-156h454v156h-133v312h133v156h-454v-156h133v-312h-133z" />
    <glyph glyph-name="FL004Ah" unicode="J" horiz-adv-x="811" 
d="M773 624v-507q0 -31 -12 -53t-32 -36.5t-45.5 -21t-52.5 -6.5h-446q-26 0 -51 7.5t-45 22.5t-32.5 36.5t-12.5 50.5v109h189v-70h351v312h-119v156h308z" />
    <glyph glyph-name="FL004Bh" unicode="K" horiz-adv-x="897" 
d="M598 312l296 312h-249l-230 -236h-182v236h-189v-624h189v231h188l224 -231h249z" />
    <glyph glyph-name="FL004Ch" unicode="L" horiz-adv-x="730" 
d="M44 0h648v156h-461v468h-187v-624z" />
    <glyph glyph-name="FL004Dh" unicode="M" horiz-adv-x="921" 
d="M513 0h-100l-180 272v-272h-189v624h177l242 -370l242 370h177v-624h-188v272z" />
    <glyph glyph-name="FL004Eh" unicode="N" 
d="M576 0h196v624h-188v-361l-341 361h-199v-624h189v357z" />
    <glyph glyph-name="FL004Fh" unicode="O" 
d="M232 156v312h351v-312h-351zM44 507v-390q0 -31 12 -53t32 -36.5t45 -21t52 -6.5h446q25 0 50 7.5t45 22.5t33 36.5t13 50.5v390q0 28 -13 50t-33 37t-45 22.5t-50 7.5h-446q-27 0 -52 -6.5t-45 -21t-32 -36.5t-12 -53z" />
    <glyph glyph-name="FL0050h" unicode="P" horiz-adv-x="809" 
d="M44 370h531q8 0 8 4v90q0 4 -8 4h-531v156h633q16 0 32.5 -9t30 -23t22.5 -30.5t9 -31.5v-193q0 -33 -10 -56.5t-26.5 -38.5t-38 -21.5t-43.5 -6.5h-420v-214h-189v370z" />
    <glyph glyph-name="FL0051h" unicode="Q" horiz-adv-x="812" 
d="M522 300h-289l161 -144h-162v312h352v-225zM44 507v-390q0 -31 12 -53t32 -36.5t45.5 -21t51.5 -6.5h665l-84 77q7 14 7 40v390q0 28 -13 50t-33 37t-45 22.5t-50 7.5h-447q-26 0 -51.5 -6.5t-45.5 -21t-32 -36.5t-12 -53z" />
    <glyph glyph-name="FL0052h" unicode="R" horiz-adv-x="788" 
d="M44 0v370h509q7 0 7 4v90q0 4 -7 4h-509v156h611q15 0 31.5 -9t31 -23t23.5 -30.5t9 -31.5v-193q0 -31 -13 -54t-34 -38t-48.5 -23t-55.5 -9l235 -213h-264l-239 213h-98v-213h-189z" />
    <glyph glyph-name="FL0053h" unicode="S" horiz-adv-x="809" 
d="M771 468h-531q-8 0 -8 -4v-70q0 -4 8 -4h413q22 0 43.5 -6.5t38 -20.5t26.5 -37.5t10 -57.5v-174q0 -15 -9 -31.5t-22.5 -30.5t-30 -23t-32.5 -9h-633v156h530q8 0 8 4v70q0 4 -8 4h-420q-21 1 -41 8t-35.5 21.5t-24.5 37t-9 55.5v173q0 15 9.5 31.5t23.5 30.5t30.5 23.5
t31.5 9.5h632v-156z" />
    <glyph glyph-name="FL0054h" unicode="T" horiz-adv-x="732" 
d="M272 0h188v468h234v156h-650v-156h228v-468z" />
    <glyph glyph-name="FL0055h" unicode="U" 
d="M44 624h188v-468h351v468h189v-507q0 -29 -13 -50.5t-33 -36.5t-45 -22.5t-50 -7.5h-446q-27 0 -52 6.5t-45 21t-32 36.5t-12 53v507z" />
    <glyph glyph-name="FL0056h" unicode="V" horiz-adv-x="869" 
d="M438 211l-223 413h-201l332 -624h183l332 624h-201z" />
    <glyph glyph-name="FL0057h" unicode="W" horiz-adv-x="1200" 
d="M672 0h183l336 624h-206l-222 -413l-212 413h-209l149 -310l-52 -100l-221 410h-205l333 -624h184l71 131z" />
    <glyph glyph-name="FL0058h" unicode="X" horiz-adv-x="870" 
d="M867 624h-248l-180 -192l-182 192h-248l294 -312l-294 -312h248l182 191l180 -191h248l-296 312z" />
    <glyph glyph-name="FL0059h" unicode="Y" horiz-adv-x="869" 
d="M532 0h-190v270l-333 354h248l182 -192l179 192h248l-334 -354v-270z" />
    <glyph glyph-name="FL005Ah" unicode="Z" horiz-adv-x="730" 
d="M307 156l385 299v169h-648v-156h386l-385 -301v-167h647v156h-385z" />
    <glyph glyph-name="FL005Bh" unicode="[" horiz-adv-x="445" 
d="M44 0h363v156h-175v312h175v156h-363v-624z" />
    <glyph glyph-name="FL005Ch" unicode="\" horiz-adv-x="779" 
d="M543 0h232l-534 623h-231z" />
    <glyph glyph-name="FL005Dh" unicode="]" horiz-adv-x="445" 
d="M44 0h363v624h-363v-156h175v-312h-175v-156z" />
    <glyph glyph-name="FL00AAh" unicode="^" 
d="M232 297v171h351v-171h-351zM44 0h188v141h351v-141h189v507q0 28 -13 50t-33 37t-45 22.5t-50 7.5h-446q-27 0 -52 -6.5t-45 -21t-32 -36.5t-12 -53v-507z" />
    <glyph glyph-name="FL005Fh" unicode="_" horiz-adv-x="561" 
d="M44 152v-152h478v152h-478z" />
    <glyph glyph-name="FL0060h" unicode="`" horiz-adv-x="319" 
d="M208 623h-196l109 -152h193z" />
    <glyph glyph-name="FL0041h" unicode="a" horiz-adv-x="869" 
d="M861 0h-202l-48 83h-347l-47 -83h-203l332 624h183zM438 414l-96 -175h192z" />
    <glyph glyph-name="FL0062h" unicode="b" horiz-adv-x="813" 
d="M44 468v156h613q15 0 31.5 -9t30.5 -23t23 -30.5t9 -31.5v-153q0 -12 -8.5 -25.5t-15.5 -21.5l-2 -2q6 -5 14.5 -13t16.5 -17.5t13.5 -19t5.5 -18.5v-166q0 -15 -9 -31.5t-22.5 -30.5t-30 -23t-32.5 -9h-637v388h510q8 0 8 4v72q0 4 -8 4h-510zM575 232h-342v-76h342
q8 0 8 4v68q0 4 -8 4z" />
    <glyph glyph-name="FL0063h" unicode="c" 
d="M44 507v-390q0 -31 12 -53t32 -36.5t45 -21t52 -6.5h446q25 0 50 7.5t45 22.5t33 36.5t13 50.5v109h-189v-70h-351v312h351v-71h189v110q0 28 -13 50t-33 37t-45 22.5t-50 7.5h-446q-27 0 -52 -6.5t-45 -21t-32 -36.5t-12 -53z" />
    <glyph glyph-name="FL0064h" unicode="d" horiz-adv-x="809" 
d="M677 624q16 0 32.5 -9t30 -23t22.5 -30.5t9 -31.5v-406q0 -34 -10 -57.5t-26.5 -38.5t-38 -21.5t-43.5 -6.5h-609v370h189v-212h343q7 0 7 4v303q0 4 -7 4h-532v155h633z" />
    <glyph glyph-name="FL0065h" unicode="e" horiz-adv-x="730" 
d="M44 0h648v156h-461v76h242v156h-242v80h461v156h-648v-624z" />
    <glyph glyph-name="f" unicode="f" horiz-adv-x="730" 
d="M44 624h648v-156h-461v-98h242v-156h-242v-214h-187v624z" />
    <glyph glyph-name="FL0067h" unicode="g" 
d="M232 468h540v156h-587q-27 0 -52 -6.5t-45 -21t-32 -36.5t-12 -53v-390q0 -31 12 -53t32 -36.5t45 -21t52 -6.5h446q25 0 50 7.5t45 22.5t33 36.5t13 50.5v271h-400v-156h211v-76h-351v312z" />
    <glyph glyph-name="FL0068h" unicode="h" horiz-adv-x="812" 
d="M585 0h189v624h-189v-236h-352v236h-189v-624h189v232h352v-232z" />
    <glyph glyph-name="FL00B1h" unicode="i" horiz-adv-x="271" 
d="M233 624h-189v-624h189v624z" />
    <glyph glyph-name="FL006Ah" unicode="j" horiz-adv-x="811" 
d="M773 624h-189v-468h-351v70h-189v-109q0 -29 12.5 -50.5t32.5 -36.5t45 -22.5t51 -7.5h446q27 0 52.5 6.5t45.5 21t32 36.5t12 53v507z" />
    <glyph glyph-name="FL006Bh" unicode="k" horiz-adv-x="897" 
d="M598 312l296 312h-235l-229 -236h-197v236h-189v-624h189v231h197l223 -231h241z" />
    <glyph glyph-name="FL006Ch" unicode="l" horiz-adv-x="730" 
d="M44 0h648v156h-461v468h-187v-624z" />
    <glyph glyph-name="FL006Dh" unicode="m" horiz-adv-x="921" 
d="M513 0h-100l-180 272v-272h-189v624h177l242 -370l242 370h177v-624h-188v272z" />
    <glyph glyph-name="FL0072h" unicode="n" 
d="M576 0h196v624h-188v-361l-341 361h-199v-624h189v357z" />
    <glyph glyph-name="FL006Fh" unicode="o" 
d="M232 156v312h351v-312h-351zM44 507v-390q0 -31 12 -53t32 -36.5t45 -21t52 -6.5h446q25 0 50 7.5t45 22.5t33 36.5t13 50.5v390q0 28 -13 50t-33 37t-45 22.5t-50 7.5h-446q-27 0 -52 -6.5t-45 -21t-32 -36.5t-12 -53z" />
    <glyph glyph-name="FL0070h" unicode="p" horiz-adv-x="809" 
d="M44 370h531q8 0 8 4v90q0 4 -8 4h-531v156h633q16 0 32.5 -9t30 -23t22.5 -30.5t9 -31.5v-193q0 -33 -10 -56.5t-26.5 -38.5t-38 -21.5t-43.5 -6.5h-420v-214h-189v370z" />
    <glyph glyph-name="FL0071h" unicode="q" horiz-adv-x="812" 
d="M522 300h-277l161 -144h-174v312h352v-225zM44 507v-390q0 -31 12 -53t32 -36.5t45.5 -21t51.5 -6.5h665l-84 77q7 14 7 40v390q0 28 -13 50t-33 37t-45 22.5t-50 7.5h-447q-26 0 -51.5 -6.5t-45.5 -21t-32 -36.5t-12 -53z" />
    <glyph glyph-name="r" unicode="r" horiz-adv-x="788" 
d="M44 0v370h502q7 0 7 4v90q0 4 -7 4h-502v156h611q15 0 31.5 -9t30.5 -23t23 -30.5t9 -31.5v-193q0 -31 -12.5 -54t-33.5 -38t-48 -23t-56 -9l226 -213h-255l-240 213h-97v-213h-189z" />
    <glyph glyph-name="FL0073h" unicode="s" horiz-adv-x="809" 
d="M771 468h-531q-8 0 -8 -4v-70q0 -4 8 -4h413q22 0 43.5 -6.5t38 -20.5t26.5 -37.5t10 -57.5v-174q0 -15 -9 -31.5t-22.5 -30.5t-30 -23t-32.5 -9h-633v156h530q8 0 8 4v70q0 4 -8 4h-420q-21 1 -41 8t-35.5 21.5t-24.5 37t-9 55.5v173q0 15 9.5 31.5t23.5 30.5t30.5 23.5
t31.5 9.5h632v-156z" />
    <glyph glyph-name="FL0074h" unicode="t" horiz-adv-x="732" 
d="M272 0h188v468h234v156h-650v-156h228v-468z" />
    <glyph glyph-name="u" unicode="u" 
d="M44 624h188v-468h351v468h189v-507q0 -29 -13 -50.5t-33 -36.5t-45 -22.5t-50 -7.5h-446q-27 0 -52 6.5t-45 21t-32 36.5t-12 53v507z" />
    <glyph glyph-name="FL0076h" unicode="v" horiz-adv-x="869" 
d="M438 211l-223 413h-201l332 -624h183l332 624h-201z" />
    <glyph glyph-name="FL0077h" unicode="w" horiz-adv-x="1200" 
d="M672 0h183l336 624h-206l-222 -413l-212 413h-209l149 -310l-52 -100l-221 410h-205l333 -624h184l71 131z" />
    <glyph glyph-name="FL0078h" unicode="x" horiz-adv-x="869" 
d="M866 624h-248l-180 -192l-182 192h-248l294 -312l-294 -312h248l182 191l180 -191h248l-296 312z" />
    <glyph glyph-name="y" unicode="y" horiz-adv-x="869" 
d="M531 0h-190v270l-333 354h243l187 -191l184 191h243l-334 -354v-270z" />
    <glyph glyph-name="FL007Ah" unicode="z" horiz-adv-x="730" 
d="M307 156l385 299v169h-648v-156h386l-385 -301v-167h647v156h-385z" />
    <glyph glyph-name="FL007Bh" unicode="{" horiz-adv-x="445" 
d="M44 655v-679q0 -31 12 -53.5t32 -36.5t45 -21t52 -7h222v158h-175v599h175v157h-222q-27 0 -52 -6.5t-45 -21t-32 -36.5t-12 -53z" />
    <glyph glyph-name="FL007Ch" unicode="|" horiz-adv-x="270" 
d="M232 782h-188v-917h188v917z" />
    <glyph glyph-name="FL007Dh" unicode="}" horiz-adv-x="445" 
d="M407 -24v679q0 31 -12 53t-32 36.5t-45 21t-52 6.5h-222v-157h175v-599h-175v-158h222q27 0 52 7t45 21t32 36.5t12 53.5z" />
    <glyph glyph-name="FL007Eh" unicode="~" horiz-adv-x="492" 
d="M314 306l-37 80h-193l-69 -152h131l37 79l36 -79h195l69 152h-131z" />
    <glyph glyph-name="FL007Fh" horiz-adv-x="173" 
 />
    <glyph glyph-name="FL20ACh" unicode="&#x20ac;" horiz-adv-x="941" 
d="M44 297v-116h131v-64q0 -31 12 -53t32 -36.5t45 -21t52 -6.5h445q25 0 50 7.5t45 22.5t33 36.5t13 50.5v109h-189v-70h-350v25h180v116h-180v24h180v116h-180v31h350v-71h189v110q0 28 -13 50t-33 37t-45 22.5t-50 7.5h-445q-27 0 -52 -6.5t-45 -21t-32 -36.5t-12 -53
v-70h-131v-116h131v-24h-131z" />
    <glyph glyph-name="FL201Ah" unicode="&#x201a;" horiz-adv-x="271" 
d="M585 627v-157h189v157h-189zM585 157v-157h189v157h-189zM44 -138h102l87 144v151h-189v-295z" />
    <glyph glyph-name="FL0192h" unicode="&#x192;" 
d="M44 0h188v468h351v-468h189v507q0 28 -13 50t-33 37t-45 22.5t-50 7.5h-587v-624z" />
    <glyph glyph-name="FL201Eh" unicode="&#x201e;" horiz-adv-x="477" 
d="M585 627v-157h189v157h-189zM585 157v-157h189v157h-189zM249 -138h102l87 144v151h-189v-295zM44 -138h102l87 144v151h-189v-295z" />
    <glyph glyph-name="FL2026h" unicode="&#x2026;" horiz-adv-x="686" 
d="M459 156v-156h189v156h-189zM251 156v-156h189v156h-189zM44 156v-156h189v156h-189z" />
    <glyph glyph-name="FL2020h" unicode="&#x2020;" horiz-adv-x="472" 
d="M44 525v-156h98v-369h188v369h103v156h-103v99h-188v-99h-98z" />
    <glyph glyph-name="FL2021h" unicode="&#x2021;" horiz-adv-x="472" 
d="M44 525v-156h98v-101h-98v-156h98v-112h188v112h103v156h-103v101h103v156h-103v99h-188v-99h-98z" />
    <glyph glyph-name="FL02C6h" unicode="&#x2c6;" horiz-adv-x="869" 
d="M438 413l222 -413h201l-332 624h-183l-332 -624h201z" />
    <glyph glyph-name="FL2030h" unicode="&#x2030;" horiz-adv-x="1404" 
d="M124 0l540 623h233l-538 -623h-235zM44 562q0 32 23.5 47t52.5 15h225q13 0 26.5 -4t24 -12t17.5 -19.5t7 -26.5v-195q0 -15 -7 -27t-17.5 -20t-24 -12t-26.5 -4h-225q-29 0 -52.5 14.5t-23.5 48.5v195zM605 257q0 33 23 48t52 15h225q27 0 51 -16.5t24 -46.5v-195
q0 -31 -24 -46.5t-51 -15.5h-225q-29 0 -52 14.5t-23 47.5v195zM990 257q0 33 23 48t52 15h225q27 0 51 -16.5t24 -46.5v-195q0 -31 -24 -46.5t-51 -15.5h-225q-29 0 -52 14.5t-23 47.5v195zM1117 209v-99h119v99h-119zM172 513v-99h118v99h-118zM732 209v-99h119v99h-119z
" />
    <glyph glyph-name="FL0160h" unicode="&#x160;" horiz-adv-x="809" 
d="M771 471h-531q-8 0 -8 -4v-71q0 -3 8 -3h413q22 0 43.5 -6.5t38 -21t26.5 -38t10 -57.5v-176q0 -15 -9 -31.5t-22.5 -30.5t-30 -23t-32.5 -9h-633v157h530q8 0 8 4v71q0 4 -8 4h-420q-21 1 -41 8t-35.5 21.5t-24.5 37t-9 55.5v175q0 15 9.5 31.5t23.5 30.5t30.5 23.5
t31.5 9.5h632v-157zM661 839l-106 -153h-288l-112 153h193l59 -85l62 85h192z" />
    <glyph glyph-name="FL2039h" unicode="&#x2039;" horiz-adv-x="235" 
d="M197 563l-153 -113v-286l153 -106v192l-86 60l86 60v193z" />
    <glyph glyph-name="FL0152h" unicode="&#x152;" horiz-adv-x="1370" 
d="M589 226v-70h-355v312h355v-71h87v-171h-87zM1331 0v152h-466v80h245v156h-245v84h466v152h-1144q-27 0 -52.5 -6.5t-45.5 -21t-32.5 -36.5t-12.5 -53v-390q0 -31 12.5 -53t32.5 -36.5t45.5 -21t52.5 -6.5h1144z" />
    <glyph glyph-name="FL017Dh" unicode="&#x17d;" horiz-adv-x="730" 
d="M515 688l107 153h-193l-61 -85l-59 85h-193l112 -153h287zM306 157l386 301v170h-648v-157h387l-386 -303v-168h647v157h-386z" />
    <glyph glyph-name="FL2018h" unicode="&#x2018;" horiz-adv-x="271" 
d="M233 623h-102l-87 -143v-147h189v290z" />
    <glyph glyph-name="FL2019h" unicode="&#x2019;" horiz-adv-x="271" 
d="M44 334h102l87 144v146h-189v-290z" />
    <glyph glyph-name="FL201Ch" unicode="&#x201c;" horiz-adv-x="475" 
d="M233 623h-102l-87 -143v-147h189v290zM436 623h-101l-87 -143v-147h188v290z" />
    <glyph glyph-name="FL201Dh" unicode="&#x201d;" horiz-adv-x="475" 
d="M248 334h101l87 144v146h-188v-290zM44 334h102l87 144v146h-189v-290z" />
    <glyph glyph-name="FL2022h" unicode="&#x2022;" horiz-adv-x="465" 
d="M44 140h383v344h-383v-344z" />
    <glyph glyph-name="FL2013h" unicode="&#x2013;" horiz-adv-x="441" 
d="M44 232h359v156h-359v-156z" />
    <glyph glyph-name="FL2014h" unicode="&#x2014;" horiz-adv-x="588" 
d="M44 232h505v156h-505v-156z" />
    <glyph glyph-name="FL02DCh" unicode="&#x2dc;" horiz-adv-x="518" 
d="M331 543l-39 80h-204l-73 -152h138l39 79l39 -79h206l72 152h-137z" />
    <glyph glyph-name="FL2122h" unicode="&#x2122;" horiz-adv-x="841" 
d="M546 374h89l66 121v-121h102v321h-126l-87 -176l-87 176h-459v-84h112v-237h102v237h119v-237h102v120z" />
    <glyph glyph-name="FL0161h" unicode="&#x161;" horiz-adv-x="809" 
d="M771 471h-531q-8 0 -8 -4v-71q0 -3 8 -3h413q22 0 43.5 -6.5t38 -21t26.5 -38t10 -57.5v-176q0 -15 -9 -31.5t-22.5 -30.5t-30 -23t-32.5 -9h-633v157h530q8 0 8 4v71q0 4 -8 4h-420q-21 1 -41 8t-35.5 21.5t-24.5 37t-9 55.5v175q0 15 9.5 31.5t23.5 30.5t30.5 23.5
t31.5 9.5h632v-157zM661 839l-106 -153h-288l-112 153h193l59 -85l62 85h192z" />
    <glyph glyph-name="FL203Ah" unicode="&#x203a;" horiz-adv-x="235" 
d="M197 450l-153 113v-193l85 -60l-85 -60v-192l153 106v286z" />
    <glyph glyph-name="FL0153h" unicode="&#x153;" horiz-adv-x="1370" 
d="M589 226v-70h-355v312h355v-71h87v-171h-87zM1331 0v152h-466v80h245v156h-245v84h466v152h-1144q-27 0 -52.5 -6.5t-45.5 -21t-32.5 -36.5t-12.5 -53v-390q0 -31 12.5 -53t32.5 -36.5t45.5 -21t52.5 -6.5h1144z" />
    <glyph glyph-name="FL017Eh" unicode="&#x17e;" horiz-adv-x="730" 
d="M515 688l107 153h-193l-61 -85l-59 85h-193l112 -153h287zM306 157l386 301v170h-648v-157h387l-386 -303v-168h647v157h-386z" />
    <glyph glyph-name="FL0178h" unicode="&#x178;" horiz-adv-x="869" 
d="M191 687h190v153h-190v-153zM684 840h-189v-153h189v153zM342 0h190v272l334 356h-248l-179 -193l-182 193h-248l333 -356v-272z" />
    <glyph glyph-name="space" unicode="&#xa0;" horiz-adv-x="481" 
 />
    <glyph glyph-name="FL00A1h" unicode="&#xa1;" horiz-adv-x="271" 
d="M233 624h-189v-156h189v156zM233 388h-189v-388h189v388z" />
    <glyph glyph-name="FL00A2h" unicode="&#xa2;" 
d="M232 157v315h87v-315h-87zM44 511v-393q0 -32 12 -54t32 -36.5t45 -21t52 -6.5h134v-146h188v146h124q25 0 50 7.5t45 22.5t33 37t13 51v110h-189v-71h-76v315h76v-72h189v111q0 29 -13 51t-33 37t-45 22.5t-50 7.5h-124v142h-188v-142h-134q-27 0 -52 -6.5t-45 -21
t-32 -37t-12 -53.5z" />
    <glyph glyph-name="FL00A3h" unicode="&#xa3;" horiz-adv-x="824" 
d="M44 156v-156h742v156h-449l-4 3v69l4 4h297v157h-269l-8 6v69l10 8h130v152h-242q-15 0 -31.5 -9t-30.5 -23t-23 -30.5t-9 -31.5v-141h-117v-156h93v-77h-93z" />
    <glyph glyph-name="FL00A4h" unicode="&#xa4;" horiz-adv-x="870" 
d="M867 624l-200 -212v-200l200 -212h-248l-123 130h-116l-123 -130h-248l203 215v194l-203 215h248l118 -125h126l118 125h248zM364 372v-117h148v117h-148z" />
    <glyph glyph-name="FL00A5h" unicode="&#xa5;" horiz-adv-x="869" 
d="M153 224v-156h189v-68h190v68h200v156h-200v41h200v156h-58l192 203h-248l-179 -192l-182 192h-248l191 -203h-47v-156h189v-41h-189z" />
    <glyph glyph-name="FL00A6h" unicode="&#xa6;" horiz-adv-x="271" 
d="M44 0h189v268h-189v-268zM44 352h189v272h-189v-272z" />
    <glyph glyph-name="FL00A7h" unicode="&#xa7;" horiz-adv-x="870" 
d="M867 624l-200 -212v-205q-28 -38 -65 -57.5t-89 -19.5h-133l-123 -130h-248l203 215v198q15 51 57.5 68.5t102.5 17.5h129l118 125h248zM364 372v-117h148v117h-148z" />
    <glyph glyph-name="FL00A8h" unicode="&#xa8;" horiz-adv-x="574" 
d="M535 623h-189v-152h189v152zM44 471h189v152h-189v-152z" />
    <glyph glyph-name="FL00A9h" unicode="&#xa9;" horiz-adv-x="357" 
d="M255 542l-37 10q-10 -37 -38 -37q-34 0 -34 47q0 51 37 51q11 0 19 -8t16 -22l33 9q-15 56 -68 56q-35 0 -55.5 -22t-20.5 -64t20 -63t55 -21q55 0 73 64zM182 670q27 0 46 -13q28 -13 40 -39q6 -15 10 -28.5t4 -27.5q0 -13 -4 -25.5t-10 -26.5v1q-9 -14 -17.5 -24
t-18.5 -15q-24 -12 -50 -12t-50 12q-14 8 -23 17.5t-14 20.5h1q-7 20 -10.5 32.5t-3.5 19.5q0 15 3.5 28.5t9.5 27.5v-1q14 26 37.5 39.5t49.5 13.5zM182 707q-34 0 -67 -18h1q-35 -16 -52 -54q-9 -18 -14.5 -35t-5.5 -38q0 -38 20 -69v1q8 -19 21.5 -32.5t28.5 -23.5
q17 -11 33 -15t35 -4q15 0 32 4t36 15q34 18 51 56v-1q9 16 13.5 34t4.5 35q0 41 -18 74q-9 16 -22 30.5t-33 24.5q-42 16 -64 16z" />
    <glyph glyph-name="FL00B5h" unicode="&#xaa;" horiz-adv-x="523" 
d="M518 473l-113 152h-288l-106 -152h193l60 85l60 -85h194z" />
    <glyph glyph-name="FL00ABh" unicode="&#xab;" horiz-adv-x="403" 
d="M197 562l-153 -113v-286l153 -106v192l-86 60l86 60v193zM365 563l-153 -113v-286l153 -106v192l-85 60l85 60v193z" />
    <glyph glyph-name="FL00ACh" unicode="&#xac;" horiz-adv-x="441" 
d="M403 130v258h-359v-157h203v-101h156z" />
    <glyph glyph-name="FL00ADh" unicode="&#xad;" horiz-adv-x="355" 
d="M44 388v-156h273v156h-273z" />
    <glyph glyph-name="FL00AEh" unicode="&#xae;" horiz-adv-x="358" 
d="M270 616l-1 1v-1h1zM156 607h17q18 0 19 -1q10 -3 10 -12q0 -8 -5.5 -11.5t-22.5 -3.5h-18v28zM119 481h37v62h5q9 0 10 -1q8 -4 25 -33l13 -28h35q-9 -7 -12 -8q-14 -7 -25.5 -10.5t-24.5 -3.5q-12 0 -24 3.5t-27 10.5q-3 1 -12 8zM182 671q28 0 47 -14q14 -8 23 -17.5
t17 -21.5v-1v2q6 -14 9.5 -27.5t3.5 -28.5q0 -7 -3.5 -19.5t-10.5 -32.5l1 1l-8 -12t-9 -11l-19 32q-3 3 -6.5 7.5t-5.5 7.5h1q-4 5 -6.5 8.5t-4.5 6.5q30 10 30 46q0 12 -10 26q-2 3 -6.5 7.5t-12.5 8.5q-8 3 -16.5 3.5t-22.5 0.5h-55v-161q-8 8 -13.5 15.5t-9.5 14.5l1 -1
q-7 20 -10.5 32.5t-3.5 19.5q0 15 3.5 28.5t9.5 27.5v-1q14 26 38 39.5t49 13.5zM182 708q-35 0 -68 -18q-17 -8 -30 -22.5t-22 -31.5q-9 -18 -13.5 -35t-4.5 -38q0 -17 4.5 -35t13.5 -34q11 -19 23.5 -31t29.5 -25q16 -10 32.5 -14t34.5 -4q15 0 31.5 4t35.5 15
q18 12 30.5 24t20.5 32v-1q20 31 20 69q0 39 -20 74v-1q-16 38 -52 54q-32 18 -66 18z" />
    <glyph glyph-name="FL00AFh" unicode="&#xaf;" horiz-adv-x="561" 
d="M44 623v-152h478v152h-478z" />
    <glyph glyph-name="FL00B0h" unicode="&#xb0;" horiz-adv-x="271" 
d="M44 623v-152h189v152h-189z" />
    <glyph glyph-name="FL00BDh" unicode="&#xb1;" horiz-adv-x="441" 
d="M403 0v156h-359v-156h359zM301 561h-156v-101h-101v-156h101v-101h156v101h102v156h-102v101z" />
    <glyph glyph-name="FL00B2h" unicode="&#xb2;" horiz-adv-x="454" 
d="M151 489h201q25 0 44.5 14.5t19.5 50.5v88q0 18 -16.5 34.5t-34.5 16.5h-321v-84h263l3 -2v-28l-3 -2h-199q-25 0 -44.5 -15t-19.5 -52v-87q0 -18 16.5 -34.5t34.5 -16.5h321v84h-264l-2 1v30z" />
    <glyph glyph-name="FL00B3h" unicode="&#xb3;" horiz-adv-x="456" 
d="M398 530l-2 -2zM397 542q-2 1 0 0t1 0v-2q-1 1 -1 2zM296 577h-252v-86h268v-31l-3 -2h-265v-84h323q18 0 34.5 16.5t16.5 34.5v87q0 7 -6 13l-11 11q2 5 3 11t1 19v78q0 8 -4.5 17t-12 16.5t-16.5 12.5t-18 5h-310v-84h252l3 -2v-30z" />
    <glyph glyph-name="FL00B4h" unicode="&#xb4;" horiz-adv-x="370" 
d="M339 623h-196l-107 -152h193z" />
    <glyph glyph-name="FL00B8h" unicode="&#xb5;" horiz-adv-x="906" 
d="M773 624h-635q-16 0 -32.5 -9t-30 -23t-22.5 -30.5t-9 -31.5v-406q0 -34 10 -57.5t26.5 -38.5t38 -21.5t44.5 -6.5h610v232h95v156h-380v-156h94v-74h-343q-7 0 -7 4v303q0 4 7 4h534v155z" />
    <glyph glyph-name="FL0DAEh" unicode="&#xb6;" horiz-adv-x="1515" 
d="M349 239l90 174l100 -174h-190zM1077 211l-220 413h-205l336 -624h185l334 624h-203zM535 624h-185l-336 -624h205l46 82h354l47 -82h203z" />
    <glyph glyph-name="FL00B7h" unicode="&#xb7;" horiz-adv-x="1512" 
d="M984 239l90 174l100 -174h-190zM439 211l-220 413h-205l336 -624h185l334 624h-203zM1170 624h-185l-336 -624h205l46 82h354l47 -82h203z" />
    <glyph glyph-name="FL00B9h" unicode="&#xb8;" horiz-adv-x="2145" 
d="M350 239l91 174l100 -174h-191zM1616 239l90 174l100 -174h-190zM1082 211l-222 413h-205l337 -624h186l335 624h-204zM1802 624h-185l-338 -624h206l46 82h356l46 -82h204zM537 624h-186l-337 -624h205l47 82h355l47 -82h203z" />
    <glyph glyph-name="FL00BCh" unicode="&#xb9;" horiz-adv-x="251" 
d="M111 609v-237h101v321h-168v-84h67z" />
    <glyph glyph-name="FL00BAh" unicode="&#xba;" horiz-adv-x="454" 
d="M146 460v149h168v-149h-168zM44 632v-195q0 -34 22.5 -48.5t51.5 -14.5h223q27 0 51 16t24 47v195q0 31 -24 47t-51 16h-223q-29 0 -51.5 -15t-22.5 -48z" />
    <glyph glyph-name="FL00BBh" unicode="&#xbb;" horiz-adv-x="403" 
d="M197 450l-153 113v-193l85 -60l-85 -60v-192l153 106v286zM365 449l-153 113v-193l85 -60l-85 -60v-192l153 106v286z" />
    <glyph glyph-name="FL099Ah" unicode="&#xbc;" horiz-adv-x="864" 
d="M10 0l535 623h232l-535 -623h-232zM426 51v83l251 186h106v-183h43v-86h-43v-51h-103v51h-254zM146 305v236h-67v84h173v-320h-106zM587 138h94v70z" />
    <glyph glyph-name="FL00BEh" unicode="&#xbd;" horiz-adv-x="933" 
d="M10 0l536 623h232l-535 -623h-233zM831 116h-203l-1 -2v-29l2 -1h266v-84h-323q-18 0 -34.5 16.5t-16.5 34.5v86q0 37 20 52t44 15h201l3 2v28l-3 2h-265v84h323q18 0 34.5 -16.5t16.5 -34.5v-88q0 -35 -20 -50t-44 -15zM146 305v236h-67v84h173v-320h-106z" />
    <glyph glyph-name="FL09B0h" unicode="&#xbe;" horiz-adv-x="1008" 
d="M151 0l537 623h232l-536 -623h-233zM44 505h254l3 2v30l-3 2h-254v84h312q9 0 18 -5t16.5 -12.5t12 -16.5t4.5 -17v-78q0 -23 -4 -30l11 -11t6 -12v-87q0 -18 -16.5 -34.5t-34.5 -16.5h-325v84h267l3 2v30h-270v86zM568 51v83l252 186h107v-183h42v-86h-42v-51h-103v51
h-256zM730 138h95v70zM399 470q0 -1 1 -2v2q1 -1 -1 0.5t0 -0.5zM398 456l2 2z" />
    <glyph glyph-name="FL00BFh" unicode="&#xbf;" horiz-adv-x="809" 
d="M247 156h524v-156h-633q-15 0 -31.5 9t-30.5 23t-23 30.5t-9 31.5v174q0 34 10 57.5t26.5 37t37.5 19.5t44 6h315l13 14h191v-50q0 -32 -9.5 -54t-25 -36.5t-35 -21.5t-40.5 -8h-324q-7 0 -7 -4v-68q0 -4 7 -4zM491 624h189v-156h-189v156z" />
    <glyph glyph-name="FL00C0h" unicode="&#xc0;" horiz-adv-x="869" 
d="M861 0h-202l-48 83h-347l-47 -83h-203l332 628h183zM587 687h-194l-109 153h196zM438 417l-96 -177h192z" />
    <glyph glyph-name="FL00C1h" unicode="&#xc1;" horiz-adv-x="869" 
d="M861 0h-202l-48 83h-347l-47 -83h-203l332 628h183zM397 840h197l-110 -153h-194zM438 417l-96 -177h192z" />
    <glyph glyph-name="FL00C2h" unicode="&#xc2;" horiz-adv-x="869" 
d="M861 0h-202l-48 83h-347l-47 -83h-203l332 628h183zM581 841l113 -153h-195l-59 85l-61 -85h-194l107 153h289zM438 417l-96 -177h192z" />
    <glyph glyph-name="FL00C3h" unicode="&#xc3;" horiz-adv-x="869" 
d="M861 0h-202l-48 83h-347l-47 -83h-203l332 628h183zM268 841h204l39 -80l41 80h138l-73 -153h-206l-39 79l-39 -79h-139zM438 417l-96 -177h192z" />
    <glyph glyph-name="FL00C4h" unicode="&#xc4;" horiz-adv-x="869" 
d="M861 0h-202l-48 83h-347l-47 -83h-203l332 628h183zM685 840v-153h-190v153h190zM192 687v153h190v-153h-190zM438 417l-96 -177h192z" />
    <glyph glyph-name="FL00C5h" unicode="&#xc5;" horiz-adv-x="869" 
d="M861 0h-202l-48 83h-347l-47 -83h-203l332 628h183zM345 688v153h190v-153h-190zM438 417l-96 -177h192z" />
    <glyph glyph-name="FL00C6h" unicode="&#xc6;" horiz-adv-x="1322" 
d="M349 239l89 174l100 -174h-189zM1284 624h-656v-176l-94 176h-184l-336 -624h204l47 82h353l47 -82h619v152h-466v80h245v156h-245v84h466v152z" />
    <glyph glyph-name="FL00C7h" unicode="&#xc7;" 
d="M44 510v-392q0 -32 12 -54t32 -36.5t45 -21t52 -6.5h160v-36h-100v-131h257v167h129q25 0 50 7.5t45 22.5t33 37t13 51v109h-189v-70h-351v314h351v-72h189v111q0 28 -13 50t-33 37t-45 22.5t-50 7.5h-446q-27 0 -52 -6.5t-45 -21t-32 -36.5t-12 -53z" />
    <glyph glyph-name="FL00C8h" unicode="&#xc8;" horiz-adv-x="730" 
d="M396 840h-195l109 -153h193zM44 0h648v157h-461v77h242v157h-242v80h461v157h-648v-628z" />
    <glyph glyph-name="FL00C9h" unicode="&#xc9;" horiz-adv-x="730" 
d="M233 687h192l110 153h-195zM44 0h648v157h-461v77h242v157h-242v80h461v157h-648v-628z" />
    <glyph glyph-name="FL00CAh" unicode="&#xca;" horiz-adv-x="730" 
d="M220 841l-106 -153h192l61 85l59 -85h194l-113 153h-287zM44 0h648v157h-461v77h242v157h-242v80h461v157h-648v-628z" />
    <glyph glyph-name="FL00CBh" unicode="&#xcb;" horiz-adv-x="730" 
d="M44 0v628h648v-153h-461v-84h242v-157h-242v-81h461v-153h-648zM612 840v-153h-189v153h189zM122 687v153h188v-153h-188z" />
    <glyph glyph-name="FL00CCh" unicode="&#xcc;" horiz-adv-x="271" 
d="M181 839h-196l110 -153h193zM44 628v-628h188v628h-188z" />
    <glyph glyph-name="FL00CDh" unicode="&#xcd;" horiz-adv-x="271" 
d="M287 839h-196l-107 -153h193zM232 0v628h-188v-628h188z" />
    <glyph glyph-name="FL00CEh" unicode="&#xce;" horiz-adv-x="271" 
d="M399 687l-113 153h-289l-107 -153h193l61 85l60 -85h195zM233 0v628h-189v-628h189z" />
    <glyph glyph-name="FL00CFh" unicode="&#xcf;" horiz-adv-x="271" 
d="M390 688v153h-190v-153h190zM-103 841v-153h189v153h-189zM233 0v628h-189v-628h189z" />
    <glyph glyph-name="FL00D0h" unicode="&#xd0;" horiz-adv-x="906" 
d="M774 624q16 0 32.5 -9t30 -23t22.5 -30.5t9 -31.5v-406q0 -34 -10 -57.5t-26.5 -38.5t-38 -21.5t-44.5 -6.5h-610v232h-95v156h380v-156h-93v-74h342q7 0 7 4v303q0 4 -7 4h-534v155h635z" />
    <glyph glyph-name="FL00D1h" unicode="&#xd1;" 
d="M435 839h-203l-74 -153h138l40 79l39 -79h205l73 153h-137l-41 -80zM570 0h202v628h-188v-357l-336 357h-204v-628h190v354z" />
    <glyph glyph-name="FL00D2h" unicode="&#xd2;" 
d="M439 841h-195l109 -153h193zM233 157v314h351v-314h-351zM772 118v392q0 31 -12 53.5t-32 37t-45 21t-52 6.5h-446q-25 0 -50 -7.5t-45.5 -22.5t-33 -37t-12.5 -51v-392q0 -29 12.5 -51t33 -37t45.5 -22.5t50 -7.5h446q27 0 52 6.5t45 21t32 36.5t12 54z" />
    <glyph glyph-name="FL00D3h" unicode="&#xd3;" 
d="M44 510q0 31 12 53.5t32 37t45 21t52 6.5h446q25 0 50 -7.5t45 -22.5t33 -37t13 -51v-392q0 -29 -13 -51t-33 -37t-45 -22.5t-50 -7.5h-446q-27 0 -52 6.5t-45 21t-32 36.5t-12 54v392zM232 471v-314h351v314h-351zM377 841h195l-109 -153h-193z" />
    <glyph glyph-name="FL00D4h" unicode="&#xd4;" 
d="M549 839h-288l-106 -153h192l61 85l60 -85h193zM232 157v314h351v-314h-351zM44 510v-392q0 -32 12 -54t32 -36.5t45 -21t52 -6.5h446q25 0 50 7.5t45 22.5t33 37t13 51v392q0 29 -13 51t-33 37t-45 22.5t-50 7.5h-446q-27 0 -52 -6.5t-45 -21t-32 -37t-12 -53.5z" />
    <glyph glyph-name="FL00D5h" unicode="&#xd5;" 
d="M435 839h-203l-74 -153h138l40 79l39 -79h205l73 153h-137l-41 -80zM232 157v314h351v-314h-351zM44 510v-392q0 -32 12 -54t32 -36.5t45 -21t52 -6.5h446q25 0 50 7.5t45 22.5t33 37t13 51v392q0 29 -13 51t-33 37t-45 22.5t-50 7.5h-446q-27 0 -52 -6.5t-45 -21
t-32 -37t-12 -53.5z" />
    <glyph glyph-name="FL00D6h" unicode="&#xd6;" 
d="M654 839h-189v-153h189v153zM162 686h189v153h-189v-153zM232 157v314h351v-314h-351zM44 510v-392q0 -32 12 -54t32 -36.5t45 -21t52 -6.5h446q25 0 50 7.5t45 22.5t33 37t13 51v392q0 29 -13 51t-33 37t-45 22.5t-50 7.5h-446q-27 0 -52 -6.5t-45 -21t-32 -37
t-12 -53.5z" />
    <glyph glyph-name="FL00D7h" unicode="&#xd7;" horiz-adv-x="391" 
d="M381 381l-111 110l-71 -70l-72 70l-111 -110l71 -71l-72 -72l111 -111l73 72l71 -72l112 111l-72 72z" />
    <glyph glyph-name="FL00D8h" unicode="&#xd8;" 
d="M233 424l150 -268h-150v268zM584 196l-151 272h151v-272zM772 117v390q0 31 -12 53t-32 36.5t-45 21t-52 6.5h-446q-25 0 -50 -7.5t-45.5 -22.5t-33 -37t-12.5 -50v-390q0 -29 12.5 -50.5t33 -36.5t45.5 -22.5t50 -7.5h446q27 0 52 6.5t45 21t32 36.5t12 53z" />
    <glyph glyph-name="FL00D9h" unicode="&#xd9;" 
d="M244 841l109 -153h193l-107 153h-195zM44 628v-510q0 -32 12 -54t32 -36.5t45 -21t52 -6.5h446q25 0 50 7.5t45 22.5t33 37t13 51v510h-189v-471h-351v471h-188z" />
    <glyph glyph-name="FL00DAh" unicode="&#xda;" 
d="M377 841l-107 -153h193l109 153h-195zM44 628v-510q0 -32 12 -54t32 -36.5t45 -21t52 -6.5h446q25 0 50 7.5t45 22.5t33 37t13 51v510h-189v-471h-351v471h-188z" />
    <glyph glyph-name="FL00DBh" unicode="&#xdb;" 
d="M549 839h-288l-106 -153h192l61 85l60 -85h193zM44 628v-510q0 -32 12 -54t32 -36.5t45 -21t52 -6.5h446q25 0 50 7.5t45 22.5t33 37t13 51v510h-189v-471h-351v471h-188z" />
    <glyph glyph-name="FL00DCh" unicode="&#xdc;" 
d="M654 839h-189v-153h189v153zM162 686h189v153h-189v-153zM44 628v-510q0 -32 12 -54t32 -36.5t45 -21t52 -6.5h446q25 0 50 7.5t45 22.5t33 37t13 51v510h-189v-471h-351v471h-188z" />
    <glyph glyph-name="FL00DDh" unicode="&#xdd;" horiz-adv-x="869" 
d="M9 628h248l182 -193l179 193h248l-334 -356v-272h-190v272zM409 840h196l-110 -153h-193z" />
    <glyph glyph-name="FL00DEh" unicode="&#xde;" horiz-adv-x="809" 
d="M565 264h-521v-264h191v105h418q22 0 43.5 6.5t38 21.5t26.5 38.5t10 57.5v195q0 15 -9 31.5t-22.5 30.5t-30 23t-32.5 9h-444v106h-189v-258h521l10 -8v-86z" />
    <glyph glyph-name="FL00DFh" unicode="&#xdf;" horiz-adv-x="813" 
d="M577 157q8 0 8 3v69q0 4 -8 4h-273v156h250q8 0 8 4v73q0 4 -8 4h-314q-8 0 -8 -4v-568h-189v634q0 15 9 31.5t23 30.5t30.5 23t31.5 9h520q15 0 31.5 -9t30.5 -23t23 -30.5t9 -31.5v-154q0 -29 -2.5 -41.5t-6.5 -20.5q1 -1 2 -1.5t2 -1.5q8 -10 18.5 -23t10.5 -24v-172
q0 -15 -9 -31.5t-22.5 -30.5t-30 -23t-32.5 -9h-377v157h273z" />
    <glyph glyph-name="FL00E0h" unicode="&#xe0;" horiz-adv-x="869" 
d="M861 0h-202l-48 83h-347l-47 -83h-203l332 628h183zM587 687h-194l-109 153h196zM438 417l-96 -177h192z" />
    <glyph glyph-name="FL00E1h" unicode="&#xe1;" horiz-adv-x="869" 
d="M861 0h-202l-48 83h-347l-47 -83h-203l332 628h183zM397 840h197l-110 -153h-194zM438 417l-96 -177h192z" />
    <glyph glyph-name="FL00E2h" unicode="&#xe2;" horiz-adv-x="869" 
d="M861 0h-202l-48 83h-347l-47 -83h-203l332 628h183zM581 841l113 -153h-195l-59 85l-61 -85h-194l107 153h289zM438 417l-96 -177h192z" />
    <glyph glyph-name="FL00E3h" unicode="&#xe3;" horiz-adv-x="869" 
d="M861 0h-202l-48 83h-347l-47 -83h-203l332 628h183zM268 841h204l39 -80l41 80h138l-73 -153h-206l-39 79l-39 -79h-139zM438 417l-96 -177h192z" />
    <glyph glyph-name="FL00E4h" unicode="&#xe4;" horiz-adv-x="869" 
d="M861 0h-202l-48 83h-347l-47 -83h-203l332 628h183zM685 840v-153h-190v153h190zM192 687v153h190v-153h-190zM438 417l-96 -177h192z" />
    <glyph glyph-name="FL00E5h" unicode="&#xe5;" horiz-adv-x="869" 
d="M861 0h-202l-48 83h-347l-47 -83h-203l332 628h183zM345 688v153h190v-153h-190zM438 417l-96 -177h192z" />
    <glyph glyph-name="FL00E6h" unicode="&#xe6;" horiz-adv-x="1322" 
d="M349 239l89 174l100 -174h-189zM1284 624h-656v-176l-94 176h-184l-336 -624h204l47 82h353l47 -82h619v152h-466v80h245v156h-245v84h466v152z" />
    <glyph glyph-name="FL00E7h" unicode="&#xe7;" 
d="M44 510v-392q0 -32 12 -54t32 -36.5t45 -21t52 -6.5h160v-36h-100v-131h257v167h129q25 0 50 7.5t45 22.5t33 37t13 51v109h-189v-70h-351v314h351v-72h189v111q0 28 -13 50t-33 37t-45 22.5t-50 7.5h-446q-27 0 -52 -6.5t-45 -21t-32 -36.5t-12 -53z" />
    <glyph glyph-name="FL00E8h" unicode="&#xe8;" horiz-adv-x="730" 
d="M396 840h-195l109 -153h193zM44 0h648v157h-461v77h242v157h-242v80h461v157h-648v-628z" />
    <glyph glyph-name="FL00E9h" unicode="&#xe9;" horiz-adv-x="730" 
d="M340 840l-107 -153h192l110 153h-195zM44 0h648v157h-461v77h242v157h-242v80h461v157h-648v-628z" />
    <glyph glyph-name="FL00EAh" unicode="&#xea;" horiz-adv-x="730" 
d="M220 841l-106 -153h192l61 85l59 -85h194l-113 153h-287zM44 0h648v157h-461v77h242v157h-242v80h461v157h-648v-628z" />
    <glyph glyph-name="FL00EBh" unicode="&#xeb;" horiz-adv-x="730" 
d="M44 0v628h648v-153h-461v-84h242v-157h-242v-81h461v-153h-648zM612 840v-153h-189v153h189zM122 687v153h188v-153h-188z" />
    <glyph glyph-name="FL00ECh" unicode="&#xec;" horiz-adv-x="271" 
d="M181 839h-196l110 -153h193zM44 628v-628h188v628h-188z" />
    <glyph glyph-name="FL00EDh" unicode="&#xed;" horiz-adv-x="271" 
d="M287 839h-196l-107 -153h193zM232 0v628h-188v-628h188z" />
    <glyph glyph-name="FL00EEh" unicode="&#xee;" horiz-adv-x="574" 
d="M543 687l-113 153h-287l-107 -153h193l61 85l59 -85h194zM378 0v628h-188v-628h188z" />
    <glyph glyph-name="FL00EFh" unicode="&#xef;" horiz-adv-x="574" 
d="M535 688v153h-189v-153h189zM44 841v-153h189v153h-189zM379 0v628h-188v-628h188z" />
    <glyph glyph-name="FL00F0h" unicode="&#xf0;" 
d="M44 286q9 42 33.5 71t77.5 29h429v82h-540v156h587q27 0 52 -6.5t45 -21t32 -36.5t12 -53v-390q0 -31 -12 -53t-32 -36.5t-45 -21t-52 -6.5h-446q-26 0 -51 7.5t-45 22.5t-32.5 36.5t-12.5 50.5v169zM233 232v-76h351v76h-351z" />
    <glyph glyph-name="FL00F1h" unicode="&#xf1;" 
d="M435 839h-203l-74 -153h138l40 79l39 -79h205l73 153h-137l-41 -80zM578 0h194v628h-188v-357l-346 357h-194v-628h190v354z" />
    <glyph glyph-name="FL00F2h" unicode="&#xf2;" 
d="M439 841h-195l109 -153h193zM233 157v314h351v-314h-351zM772 118v392q0 31 -12 53.5t-32 37t-45 21t-52 6.5h-446q-25 0 -50 -7.5t-45.5 -22.5t-33 -37t-12.5 -51v-392q0 -29 12.5 -51t33 -37t45.5 -22.5t50 -7.5h446q27 0 52 6.5t45 21t32 36.5t12 54z" />
    <glyph glyph-name="FL00F3h" unicode="&#xf3;" 
d="M44 510q0 31 12 53.5t32 37t45 21t52 6.5h446q25 0 50 -7.5t45 -22.5t33 -37t13 -51v-392q0 -29 -13 -51t-33 -37t-45 -22.5t-50 -7.5h-446q-27 0 -52 6.5t-45 21t-32 36.5t-12 54v392zM232 471v-314h351v314h-351zM377 841h195l-109 -153h-193z" />
    <glyph glyph-name="FL00F4h" unicode="&#xf4;" 
d="M549 839h-288l-106 -153h192l61 85l60 -85h193zM232 157v314h351v-314h-351zM44 510v-392q0 -32 12 -54t32 -36.5t45 -21t52 -6.5h446q25 0 50 7.5t45 22.5t33 37t13 51v392q0 29 -13 51t-33 37t-45 22.5t-50 7.5h-446q-27 0 -52 -6.5t-45 -21t-32 -37t-12 -53.5z" />
    <glyph glyph-name="FL00F5h" unicode="&#xf5;" 
d="M435 839h-203l-74 -153h138l40 79l39 -79h205l73 153h-137l-41 -80zM232 157v314h351v-314h-351zM44 510v-392q0 -32 12 -54t32 -36.5t45 -21t52 -6.5h446q25 0 50 7.5t45 22.5t33 37t13 51v392q0 29 -13 51t-33 37t-45 22.5t-50 7.5h-446q-27 0 -52 -6.5t-45 -21
t-32 -37t-12 -53.5z" />
    <glyph glyph-name="FL00F6h" unicode="&#xf6;" 
d="M654 839h-189v-153h189v153zM162 686h189v153h-189v-153zM232 157v314h351v-314h-351zM44 510v-392q0 -32 12 -54t32 -36.5t45 -21t52 -6.5h446q25 0 50 7.5t45 22.5t33 37t13 51v392q0 29 -13 51t-33 37t-45 22.5t-50 7.5h-446q-27 0 -52 -6.5t-45 -21t-32 -37
t-12 -53.5z" />
    <glyph glyph-name="FL00F7h" unicode="&#xf7;" horiz-adv-x="587" 
d="M200 575v-152h189v152h-189zM200 197v-152h189v152h-189zM44 388v-156h505v156h-505z" />
    <glyph glyph-name="FL00F8h" unicode="&#xf8;" 
d="M583 156h-151l151 268v-268zM232 468h150l-150 -272v272zM44 507v-390q0 -31 12 -53t32 -36.5t45 -21t52 -6.5h446q25 0 50 7.5t45 22.5t33 36.5t13 50.5v390q0 28 -13 50t-33 37t-45 22.5t-50 7.5h-446q-27 0 -52 -6.5t-45 -21t-32 -36.5t-12 -53z" />
    <glyph glyph-name="FL00F9h" unicode="&#xf9;" 
d="M244 841l109 -153h193l-107 153h-195zM44 628v-510q0 -32 12 -54t32 -36.5t45 -21t52 -6.5h446q25 0 50 7.5t45 22.5t33 37t13 51v510h-189v-471h-351v471h-188z" />
    <glyph glyph-name="FL00FAh" unicode="&#xfa;" 
d="M377 841l-107 -153h193l109 153h-195zM44 628v-510q0 -32 12 -54t32 -36.5t45 -21t52 -6.5h446q25 0 50 7.5t45 22.5t33 37t13 51v510h-189v-471h-351v471h-188z" />
    <glyph glyph-name="FL00FBh" unicode="&#xfb;" 
d="M549 839h-288l-106 -153h192l61 85l60 -85h193zM44 628v-510q0 -32 12 -54t32 -36.5t45 -21t52 -6.5h446q25 0 50 7.5t45 22.5t33 37t13 51v510h-189v-471h-351v471h-188z" />
    <glyph glyph-name="FL00FCh" unicode="&#xfc;" 
d="M654 839h-189v-153h189v153zM162 686h189v153h-189v-153zM44 628v-510q0 -32 12 -54t32 -36.5t45 -21t52 -6.5h446q25 0 50 7.5t45 22.5t33 37t13 51v510h-189v-471h-351v471h-188z" />
    <glyph glyph-name="FL00FDh" unicode="&#xfd;" horiz-adv-x="869" 
d="M9 628h248l182 -193l179 193h248l-334 -356v-272h-190v272zM409 840h196l-110 -153h-193z" />
    <glyph glyph-name="FL00FEh" unicode="&#xfe;" horiz-adv-x="809" 
d="M565 264h-521v-264h191v105h418q22 0 43.5 6.5t38 21.5t26.5 38.5t10 57.5v195q0 15 -9 31.5t-22.5 30.5t-30 23t-32.5 9h-444v106h-189v-258h521l10 -8v-86z" />
    <glyph glyph-name="FL00FFh" unicode="&#xff;" horiz-adv-x="869" 
d="M191 687h190v153h-190v-153zM684 840h-189v-153h189v153zM342 0h190v272l334 356h-248l-179 -193l-182 193h-248l333 -356v-272z" />
  </font>
</defs>
</svg>
